# xmcd CD database file
#
# Track frame offsets:
#	150
#	12802
#	24995
#	39915
#	53975
#	67217
#	78197
#	93527
#	105195
#	124015
#	135577
#	156407
#	170360
#	188875
#	199885
#	215740
#	231815
#	248622
#	260177
#	276762
#	293285
#
# Disc length: 3995 seconds
#
# Revision: 5
# Processed by: cddbd v1.5.2PL0 Copyright (c) Steve Scherf et al.
# Submitted via: CDex 1.79
#
DISCID=220f9915
DTITLE=Aretha Franklin - Jazz To Soul - CD1
DYEAR=1992
DGENRE=Soul
TTITLE0=Today I Sing The Blues  (01.08.1960)
TTITLE1=(Blue) By Myself  (17.11.1960)
TTITLE2=Maybe I'm A Fool  (10.01.1961)
TTITLE3=All Night Long  (17.11.1960)
TTITLE4=Blue Holiday  (25.01.1962)
TTITLE5=Nobody Like You  (25.01.1962)
TTITLE6=Sweet Lover  (29.11.1960)
TTITLE7=Just For A Thrill  (11.05.1962)
TTITLE8=If Ever I Would Leave You  (13.06.1963)
TTITLE9=Once In A While  (09.10.1963)
TTITLE10=This Bitter Earth  (10.02.1964)
TTITLE11=God Bless The Child  (11.05.1962)
TTITLE12=Skylark  (10.02.1965)
TTITLE13=Muddy Water  (10.02.1965)
TTITLE14=Drinking Again  (08.02.1964)
TTITLE15=What A Difference A Day Makes  (10.02.1964)
TTITLE16=Unforgettable  (10.02.1964)
TTITLE17=Love For Sale   (10.02.1965
TTITLE18=Misty  (10.02.1965)
TTITLE19=Impossible  (10.02.1965)
TTITLE20=This Could Be The Start Of Something  (10.02.1965)
EXTD=Two disk set YEAR: 1992
EXTT0=
EXTT1=
EXTT2=
EXTT3=
EXTT4=
EXTT5=
EXTT6=
EXTT7=
EXTT8=
EXTT9=
EXTT10=
EXTT11=
EXTT12=
EXTT13=
EXTT14=
EXTT15=
EXTT16=
EXTT17=
EXTT18=
EXTT19=
EXTT20=
PLAYORDER=
